<?xml version="1.0" encoding="UTF-8" standalone="no"?>
<!-- Created with Inkscape (http://www.inkscape.org/) -->

<svg
   xmlns:dc="http://purl.org/dc/elements/1.1/"
   xmlns:cc="http://creativecommons.org/ns#"
   xmlns:rdf="http://www.w3.org/1999/02/22-rdf-syntax-ns#"
   xmlns:svg="http://www.w3.org/2000/svg"
   xmlns="http://www.w3.org/2000/svg"
   xmlns:sodipodi="http://sodipodi.sourceforge.net/DTD/sodipodi-0.dtd"
   xmlns:inkscape="http://www.inkscape.org/namespaces/inkscape"
   width="129.26445mm"
   height="34.216457mm"
   viewBox="0 0 458.02364 121.23942"
   id="svg2"
   version="1.1"
   inkscape:version="0.91 r13725"
   sodipodi:docname="name.svg">
  <defs
     id="defs4" />
  <sodipodi:namedview
     id="base"
     pagecolor="#ffffff"
     bordercolor="#666666"
     borderopacity="1.0"
     inkscape:pageopacity="0.0"
     inkscape:pageshadow="2"
     inkscape:zoom="0.35"
     inkscape:cx="412.64806"
     inkscape:cy="-409.34106"
     inkscape:document-units="px"
     inkscape:current-layer="text3351"
     showgrid="false"
     inkscape:window-width="1280"
     inkscape:window-height="751"
     inkscape:window-x="0"
     inkscape:window-y="0"
     inkscape:window-maximized="1"
     fit-margin-top="0"
     fit-margin-left="0"
     fit-margin-right="0"
     fit-margin-bottom="-3.1" />
  <metadata
     id="metadata7">
    <rdf:RDF>
      <cc:Work
         rdf:about="">
        <dc:format>image/svg+xml</dc:format>
        <dc:type
           rdf:resource="http://purl.org/dc/dcmitype/StillImage" />
        <dc:title></dc:title>
      </cc:Work>
    </rdf:RDF>
  </metadata>
  <g
     inkscape:label="Layer 1"
     inkscape:groupmode="layer"
     id="layer1"
     transform="translate(-7.3834603,-5.9337078)">
    <g
       style="font-style:normal;font-variant:normal;font-weight:normal;font-stretch:normal;font-size:125px;line-height:125%;font-family:SignPainter;-inkscape-font-specification:SignPainter;letter-spacing:0px;word-spacing:0px;fill:#ffffff;fill-opacity:1;stroke:none;stroke-width:1px;stroke-linecap:butt;stroke-linejoin:miter;stroke-opacity:1"
       id="text3351"
       transform="matrix(1.9394714,0,0,1.9394714,-598.02632,-456.72985)">
      <path
  d="m 475.69432,238.55232 c -0.25783,-0.0152 -0.54573,0.15162 -0.81873,0.5156 -4.91396,6.12729 -17.53308,27.48191 -19.6564,33.54852 -1.274,3.63998 -0.72797,5.33897 0.24269,6.43096 0.36399,0.42467 0.78855,0.3033 1.03121,-0.24269 1.45599,-3.70065 3.70115,-7.94728 5.88514,-11.52658 3.51864,-5.76329 10.13144,-9.88907 10.98076,-9.40374 0.97067,0.546 -4.30812,6.85544 -6.31011,12.74006 -1.81998,5.27796 -0.54514,8.97877 4.55082,8.97877 3.17165,0 6.43529,-2.38283 8.32016,-5.33127 0.98534,3.23118 3.66982,5.39652 7.81362,5.33127 3.20653,-0.0417 6.41268,-1.37008 8.93244,-3.39574 0.0349,1.28871 0.45077,2.26445 1.15709,2.97076 0.546,0.54601 0.9104,0.30331 1.15306,-0.24269 2.60865,-5.70262 5.27761,-11.52608 8.85692,-15.40871 3.88264,-4.24664 7.40132,-5.94554 8.00798,-5.70287 1.09199,0.48532 -4.24669,6.91561 -6.24868,12.8609 -1.75932,5.27796 -0.54539,9.03919 4.61123,9.03919 2.79148,0 5.7695,-1.94891 7.70084,-4.45011 0.49667,2.49774 2.1217,4.14699 4.72402,4.14699 2.24465,0 4.36751,-1.27388 6.12683,-3.0332 -0.60666,1.39532 -1.15264,2.8516 -1.7593,4.18627 -6.00594,2.3053 -11.22343,6.00518 -12.98275,11.46514 -1.15265,3.57931 -0.0605,5.70261 1.21348,7.52259 1.09199,1.57732 2.30526,1.75923 3.5186,1.27391 4.91396,-1.94132 9.22114,-11.58655 12.55778,-19.71583 5.0353,-1.81998 9.4033,-4.24692 11.76928,-7.94756 1.03132,-1.63799 1.33482,-2.9726 1.21348,-3.5186 -0.12133,-0.60666 -0.66722,-0.60617 -1.03121,-0.12084 -2.42665,3.21531 -5.76295,6.55163 -10.85891,9.09961 2.54798,-5.88462 6.37028,-13.22493 8.19026,-16.86489 1.51665,-2.97264 1.03083,-5.58167 0.12084,-6.67366 -0.42467,-0.546 -1.03127,-0.48579 -1.5166,0.36354 -0.60666,1.03132 -1.27401,2.124 -2.002,3.33733 0.0607,-2.12332 -1.15237,-4.00399 -3.57901,-4.00399 -3.09399,0 -8.00811,2.73 -12.74007,9.76728 -1.3374,1.98134 -2.22669,3.98362 -2.70491,5.8509 -2.21974,3.87839 -4.93142,7.32268 -7.23356,7.43498 -2.18399,0.12133 -2.54711,-2.73005 -0.96978,-6.24869 1.39532,-3.15463 4.36744,-7.64377 5.64144,-10.31309 1.51665,-3.15464 -0.36355,-6.12763 -2.36554,-6.43096 -2.00198,-0.30333 -6.12794,3.03359 -8.85792,5.94557 0.66733,-2.18398 0.72872,-4.24663 -0.18127,-5.76329 -0.364,-0.60666 -0.85025,-0.66733 -1.27492,0 -3.56639,5.26469 -7.86905,12.95641 -9.41481,17.06731 -2.5999,3.12273 -6.09897,5.92905 -9.9566,5.74315 -3.21531,-0.182 -4.6704,-4.00472 -2.72908,-9.58601 4.24663,3.45797 8.31123,1.88067 11.28388,-1.7593 2.54798,-3.09398 3.03257,-6.79469 1.94057,-8.25068 -0.97066,-1.33465 -2.06237,-2.24406 -3.57902,-3.15405 -3.03332,-1.75932 -9.22173,1.39553 -13.16503,9.22146 -1.07253,2.12856 -1.65153,4.2377 -1.77743,6.18021 -1.9332,3.56914 -4.87906,7.1768 -7.13689,7.28694 -2.24465,0.12133 -2.54786,-2.72903 -1.03121,-6.24767 1.39533,-3.15465 4.30679,-7.58336 5.64144,-10.25268 1.57732,-3.09397 -0.30289,-6.12787 -2.36554,-6.37053 -1.63799,-0.182 -4.79257,1.82004 -7.27989,4.24668 2.60865,-4.06462 5.8239,-8.97807 7.27989,-11.40472 2.30532,-3.82197 2.48653,-6.8559 1.69787,-8.61523 -0.15167,-0.36399 -0.37862,-0.56085 -0.63645,-0.57602 z m -52.16265,2.08557 c -0.25025,-0.008 -0.53856,0.18964 -0.84189,0.6143 -2.18398,3.09398 -6.79443,11.34437 -10.0704,17.59299 0.0607,-2.24466 -1.15314,-4.12585 -3.64044,-4.12585 -3.03331,0 -7.88601,2.73 -12.67864,9.76728 -1.52052,2.22516 -2.471,4.48951 -2.90128,6.56188 -1.89526,3.55807 -4.73749,6.61816 -7.11876,6.724 -1.94133,0.12133 -2.06324,-2.24465 -0.60725,-5.76329 1.27399,-3.03331 3.82163,-7.15839 5.09562,-9.8277 1.45599,-3.03332 0.97139,-5.64157 0.0614,-6.61223 -0.48533,-0.546 -0.91019,-0.36445 -1.45618,0.36354 -2.24465,3.15465 -6.24862,10.31342 -7.76528,14.74206 -1.69865,4.97462 -0.54623,8.85692 4.06441,8.85692 2.6851,0 5.6319,-1.59544 7.64948,-4.1198 0.53193,2.44521 2.15692,4.05938 4.73711,4.05938 2.85131,0 5.58127,-2.24401 7.52259,-4.67066 0,2.85132 1.63738,4.67094 4.91335,4.85293 3.33664,0.182 7.09808,-3.03289 8.73607,-6.36953 0.78866,-1.63799 0.72805,-3.2153 0.48539,-3.76129 -0.24267,-0.48533 -0.66745,-0.48561 -0.97078,0.0604 -2.12332,4.18597 -5.39882,8.25019 -7.88614,8.37152 -2.06265,0.12133 -2.00253,-2.36549 -0.36454,-5.88413 3.03331,-6.43062 8.85729,-16.44112 11.76927,-21.65841 2.54798,-4.54997 2.73048,-7.15804 1.88115,-9.16003 -0.15166,-0.39433 -0.36404,-0.60672 -0.61429,-0.6143 z m -90.20761,0.20443 c -0.45891,-0.004 -0.93057,0.0299 -1.4159,0.10574 -3.94331,0.60666 -6.97707,3.03403 -11.16304,3.58003 -0.78866,0.12133 -0.84889,0.48472 -0.60624,1.15205 0.36401,0.91 1.57659,2.42748 3.94257,2.54882 -4.18596,6.24862 -9.22096,15.71208 -11.10161,21.4147 -1.27399,3.94331 -0.97039,4.85364 0.18227,6.43096 0.84932,1.21332 1.81981,2.00156 2.54782,2.60823 1.03131,0.84932 2.12281,1.03164 3.88214,0.42498 16.25853,-5.3993 27.05742,-23.11385 21.47613,-32.82044 -1.96408,-3.4504 -4.5318,-5.41438 -7.74414,-5.44507 z m 126.88602,0.49547 c -0.26542,-0.0104 -0.5536,0.005 -0.8721,0.0352 -3.33664,0.24267 -9.58509,1.75979 -14.07439,1.63845 -0.66733,0 -0.84967,0.36336 -0.66767,0.90937 0.66733,2.00197 2.42699,3.5193 6.43096,3.09463 2.54798,-0.30333 6.79461,-1.33463 9.52458,-1.7593 -8.97859,6.12729 -23.903,20.56522 -28.9383,27.9665 -0.97066,1.456 -0.78845,2.06258 -0.30312,3.2759 0.24268,0.66733 1.03153,1.82006 1.45618,2.48739 0.66733,1.09199 1.45589,0.97049 3.03321,0.54582 4.24664,-1.15266 10.4951,-2.48638 14.31708,-2.48638 0.78867,0 0.84991,-0.36437 0.60725,-0.91037 -0.728,-1.75932 -2.42735,-2.8509 -5.33933,-2.60823 -3.03331,0.24266 -7.70374,1.27375 -10.73706,2.06242 7.27995,-8.6146 19.17019,-20.02029 28.14878,-26.45091 1.45599,-1.03133 1.81941,-1.57718 1.39475,-2.79051 -0.48533,-1.39532 -1.15266,-2.85158 -2.00199,-3.94357 -0.5915,-0.7735 -1.18259,-1.03517 -1.97883,-1.06645 z m -124.70477,3.56593 c 1.03788,0.0275 1.92656,0.44285 2.5901,1.50452 3.57931,5.70261 -4.06432,23.05296 -20.62619,29.36225 -1.81999,0.66733 -2.24483,-0.18109 -1.45618,-2.72908 1.75932,-5.58128 6.67355,-13.64987 9.70686,-19.04916 1.51666,-2.66932 1.88036,-4.85387 1.57702,-6.37053 2.91957,-0.95929 5.92503,-2.77845 8.20839,-2.718 z m 57.62483,4.06038 c -0.40367,0.005 -0.78326,0.15505 -1.0866,0.47734 -0.97065,1.03133 -1.27478,2.85139 -0.30412,4.48938 0.90999,1.57732 2.60908,1.75969 3.39775,0.91036 0.78866,-0.84932 1.21364,-2.48709 0.42497,-4.06441 -0.5422,-1.12612 -1.54391,-1.82277 -2.432,-1.81267 z m -23.65134,5.3645 c -0.282,0.0261 -0.52908,0.27778 -0.68075,0.69486 -1.42987,4.37371 -2.64299,9.85737 -3.34136,14.24155 -0.066,0.0686 -0.13026,0.15148 -0.18933,0.25781 -2.12331,4.18597 -5.46024,8.31061 -7.94756,8.43194 -2.06265,0.12133 -2.00205,-2.48682 -0.48539,-5.88413 1.45599,-3.21531 4.49006,-7.76539 5.82472,-10.49537 1.45599,-3.03331 0.97038,-5.64207 0.0604,-6.73408 -0.42466,-0.54599 -0.91018,-0.42511 -1.45618,0.36354 -0.66732,0.97067 -1.39561,2.24489 -2.18427,3.70088 0.12134,-2.36598 -1.09121,-4.36754 -3.69986,-4.36754 -3.03331,0 -7.8261,2.72951 -12.74006,9.88813 -5.0353,7.34061 -3.88267,15.04518 1.75929,15.04518 2.91198,0 5.6417,-2.24476 7.58301,-4.73209 0,2.85131 1.69881,4.79278 4.97478,4.97478 2.84278,0.15507 6.03315,-2.24501 7.89217,-5.02211 -0.0757,2.87513 0.79039,4.04788 3.04026,5.14397 0.60666,0.30333 0.91015,-0.12192 1.21348,-0.60725 5.82396,-9.22126 11.3442,-15.04492 14.37751,-18.86689 1.94132,-2.42665 2.66939,-4.00391 2.48739,-5.2779 -0.12133,-0.78866 -0.48573,-0.91001 -1.15306,-0.2427 -4.1253,4.24664 -12.19406,14.924 -16.50136,22.02195 0.84933,-6.61262 2.06307,-10.01034 3.15506,-14.68163 0.84933,-3.70064 0.5458,-5.94477 -1.45618,-7.64344 -0.182,-0.15924 -0.36353,-0.2251 -0.53273,-0.20946 z m 124.89208,3.00904 c 0.26518,-0.0121 0.48325,0.0443 0.64249,0.17321 0.84933,0.66733 -0.48564,3.82154 -2.42697,6.36952 -1.75932,2.30533 -4.24582,4.91386 -7.21846,3.03321 0.12133,-0.30333 0.3034,-0.66721 0.4854,-1.03121 2.49489,-5.04288 6.6613,-8.46014 8.51754,-8.54473 z m -137.96043,0.35447 c 1.75932,0.182 1.21273,3.94394 -2.60924,10.61723 -3.09398,5.33863 -6.24875,9.2207 -8.73607,9.16003 -2.36598,-0.0607 -1.57686,-5.39892 1.63845,-10.61621 3.33664,-5.39929 7.76554,-9.34304 9.70686,-9.16105 z m 53.53927,0.12186 c 1.75932,0.0607 0.84999,3.88226 -2.66865,10.61621 -2.85132,5.52062 -6.12715,9.09986 -8.5538,9.03919 -2.36599,-0.0607 -1.69896,-5.3385 1.57703,-10.55579 3.33664,-5.33863 7.76476,-9.16028 9.64542,-9.09961 z m 128.56878,0.0604 c 1.75932,0.12134 1.21374,3.8825 -2.60823,10.55579 -3.09398,5.33862 -6.18782,9.16027 -8.5538,9.09961 -2.42665,-0.0607 -1.75938,-5.39892 1.51661,-10.61621 3.33663,-5.27796 7.76477,-9.16052 9.64542,-9.03919 z m -8.5538,25.177 c -3.9433,9.22127 -8.73592,15.53017 -9.52458,14.37751 -1.03132,-1.45598 1.63797,-9.76688 9.52458,-14.37751 z"
         id="path3372"
         inkscape:connector-curvature="0" />
    </g>
    <g
       style="font-style:normal;font-weight:normal;font-size:40px;line-height:125%;font-family:sans-serif;letter-spacing:0px;word-spacing:0px;fill:#000000;fill-opacity:1;stroke:none;stroke-width:1px;stroke-linecap:butt;stroke-linejoin:miter;stroke-opacity:1"
       id="flowRoot3363"
       transform="translate(-311.42857,-85.714286)" />
  </g>
</svg>
