
<svg x="0px" y="0px" width="18px" height="18px" viewBox="0 0 18 18" xml:space="preserve" fill="#fff">
<metadata> Free Icon Download -- www.onlinewebfonts.com </metadata>

  <path d="M16.598 4.3746l-2.9576-2.9576c-0.18506-0.1845-0.4365-0.28913-0.6975-0.28913l-10.204 0c-0.81506 0-1.6251 0.81337-1.6251 1.629l0 12.531c0 0.81506 0.81 1.5823 1.6251 1.5823l12.551 0c0.81562 0 1.5969-0.76669 1.5969-1.5823l0-10.217C16.887 4.8111 16.782 4.5602 16.598 4.3746zM15.783 15.291c0 0.27225-0.2205 0.49219-0.49275 0.49219l-12.551 0c-0.27225 0-0.49275-0.21994-0.49275-0.49219l0-12.532c0-0.27169 0.2205-0.49331 0.49275-0.49331l9.7116 0 0 1.8214-0.0005625 0c0 0.81619 0.66206 1.4777 1.4788 1.4777l0.49275 0 1.3613 0L15.783 15.291 15.783 15.291zM14.092 4.4977c-0.32794 0-0.59569-0.26719-0.59569-0.59569l0-1.1121 1.7359 1.7061L14.092 4.4977 14.092 4.4977z" />
<path d="M9.5822 5.5029l1.7865 0c0.32287 0 0.585-0.26437 0.585-0.58556 0-0.32062-0.26212-0.58444-0.585-0.58444l-1.7865 0c-0.32287 0-0.58556 0.26044-0.58556 0.58444S9.2588 5.5029 9.5822 5.5029z" />
<path d="M3.9577 9.8544l10.126 0c0.32287 0 0.585-0.26437 0.585-0.58556 0-0.32006-0.26212-0.58444-0.585-0.58444l-10.126 0c-0.32287 0-0.58556 0.26044-0.58556 0.58444S3.6343 9.8544 3.9577 9.8544z" />
<path d="M3.9577 12.029l10.126 0c0.32287 0 0.585-0.26381 0.585-0.58556 0-0.32006-0.26212-0.58388-0.585-0.58388l-10.126 0c-0.32287 0-0.58556 0.261-0.58556 0.58388C3.3716 11.769 3.6343 12.029 3.9577 12.029z" />
<path d="M3.9577 14.205l10.126 0c0.32287 0 0.585-0.26437 0.585-0.58556 0-0.32062-0.26212-0.58444-0.585-0.58444l-10.126 0c-0.32287 0-0.58556 0.26044-0.58556 0.58444C3.3716 13.945 3.6343 14.205 3.9577 14.205z" />
<path d="M9.5822 7.6781l1.7865 0c0.32287 0 0.585-0.26381 0.585-0.58556 0-0.32062-0.26212-0.58444-0.585-0.58444l-1.7865 0c-0.32287 0-0.58556 0.26156-0.58556 0.58444C8.9966 7.4177 9.2588 7.6781 9.5822 7.6781z" />
<path d="M3.8644 7.7378l3.5151 0c0.27281 0 0.49275-0.2205 0.49275-0.49331l0-2.9565c0-0.27337-0.2205-0.49331-0.49275-0.49331l-3.5151 0c-0.27225 0-0.49275 0.21994-0.49275 0.49331l0 2.9565C3.3716 7.5178 3.5927 7.7378 3.8644 7.7378zM4.4882 4.9101l2.259 0 0 1.7139-2.259 0L4.4882 4.9101z" />


</svg>