<svg width="95" height="110" xmlns="http://www.w3.org/2000/svg" xmlns:xlink="http://www.w3.org/1999/xlink">
 <!-- Created with SVG-edit - http://svg-edit.googlecode.com/ -->
 <defs>
  <svg height="765" width="990" id="svg_1">
   <metadata id="metadata3045">image/svg+xml</metadata>
   <defs>
    <clipPath id="clipPath3055" clipPathUnits="userSpaceOnUse">
     <path id="path3057" d="m0,0l792,0l0,612l-792,0l0,-612z"/>
    </clipPath>
   </defs>
   <g transform="matrix(1.25,0,0,-1.25,0,765)" id="g3047">
    <g id="g3049"/>
    <g id="g3051">
     <g clip-path="url(#clipPath3055)" id="g3053">
      <path fill="#688b9a" fill-rule="nonzero" id="path3059" d="m173.162003,44.75l471.499985,0l0,543.729004l-471.499985,0l0,-543.729004z"/>
      <path fill="#36465D" fill-rule="nonzero" id="path3061" d="m223.841797,225.292007l26.161011,0l9.962982,-40.612991l9.466003,40.612991l26.078003,0.07901l0.07901,-60.043015l-15.687012,0l0.742004,50.326004l-14.196991,-50.326004l-14.954025,0l-13.694977,50.739014l0.412994,-50.739014l-14.369003,0l0,59.964005z"/>
      <path fill="#36465D" fill-rule="nonzero" id="path3063" d="m305.472992,165.328003l17.112,0l0,59.964005l-17.112,0l0,-59.964005z"/>
      <path fill="#36465D" fill-rule="nonzero" id="path3065" d="m346.081085,213.407196l-18.268982,0l0,11.88501l53.72998,0l0,-11.88501l-18.682007,0l0,-48.078995l-16.778992,0l0,48.078995z"/>
      <path fill="#36465D" fill-rule="nonzero" id="path3067" d="m394.498993,182.849594c0.166992,-4.146011 0.65799,-11.876007 14.446991,-11.876007c12.451019,0 14.029999,7.729996 14.029999,10.710007c0,6.727997 -5.394989,8.056 -13.783997,10.136002c-9.130981,2.241989 -13.199005,3.235001 -16.266998,5.309998c-4.907013,3.32399 -6.234985,7.80899 -6.234985,11.802002c0,12.205002 11.540985,17.516998 22.832001,17.516998c3.987976,0 12.042999,-0.664001 16.862,-5.897003c3.319,-3.653 3.485992,-7.720993 3.653992,-10.214005l-8.640991,0c-0.413025,7.475006 -6.722015,9.137009 -12.618011,9.137009c-8.300995,0 -13.286987,-3.737 -13.286987,-9.71701c0,-5.314987 3.490997,-7.143997 10.793976,-8.885986c14.285004,-3.658005 15.859009,-3.993011 19.351013,-6.309006c5.561005,-3.653 5.979004,-9.471008 5.979004,-11.964005c0,-10.626999 -8.300995,-18.681992 -23.667999,-18.681992c-4.567993,0 -13.872009,0.743011 -18.597015,6.811005c-3.408997,4.406006 -3.492981,9.215988 -3.492981,12.121994l8.640991,0z"/>
      <path fill="#36465D" fill-rule="nonzero" id="path3069" d="m442.911011,165.328003l7.799988,0l0,59.875992l-7.799988,0l0,-59.875992z"/>
      <path fill="#36465D" fill-rule="nonzero" id="path3071" d="m461.592804,185.671906c0,-12.209991 6.727997,-21.75499 20.516998,-21.75499c14.195984,0 21.085999,10.12999 21.085999,22.334991c0,8.719009 -3.733002,21.848999 -20.427002,21.848999c-16.362,0 -21.175995,-12.125992 -21.175995,-22.429001m8.144989,0.497009c0,13.041 8.054016,16.192993 13.031006,16.192993c7.312012,0 12.126007,-5.483002 12.126007,-15.858994c0,-12.539001 -6.727997,-16.768997 -12.623016,-16.768997c-8.885986,0 -12.533997,7.882996 -12.533997,16.434998"/>
      <path fill="#36465D" fill-rule="nonzero" id="path3073" d="m546.710022,165.328094c-0.580017,4.238998 -0.664001,9.806 -0.664001,10.459991l0.335022,19.931c0,1.917999 -0.083008,3.904007 -1.416016,6.397003c-2.237,4.234009 -8.718994,6.147003 -14.781982,6.147003c-4.397034,0 -10.296997,-0.998001 -13.450012,-4.479996c-2.410034,-2.832001 -2.660034,-5.733002 -2.906006,-7.897003l7.809021,0c0.078979,1.666992 0.496948,7.060989 8.379944,7.060989c2.247009,0 5.655029,-0.668991 7.228027,-2.733994c1.494995,-1.828995 1.494995,-4.072006 1.494995,-9.220001c-2.409973,0.162003 -3.64801,0.244995 -5.640015,0.244995c-3.328979,0 -9.967957,-0.244995 -14.45697,-2.742996c-6.137024,-3.569992 -7.308014,-8.882004 -7.308014,-12.205994c0,-6.889008 5.14798,-12.28801 14.698029,-12.28801c3.487,0 9.136963,0.658005 12.868958,7.562012c0,-2.16301 0.171997,-4.154999 0.752014,-6.235001l7.057007,0zm-7.971008,20.266006c-0.161987,-5.813004 -0.245972,-8.139008 -1.992004,-10.962006c-1.911987,-2.910995 -4.901978,-4.485001 -8.88501,-4.485001c-6.972961,0 -8.639954,4.564011 -8.639954,7.219009c0,8.472992 11.875,8.472992 15.032959,8.472992c1.907043,0 3.078003,-0.083008 4.484009,-0.24501"/>
      <path fill="#36465D" fill-rule="nonzero" id="path3075" d="m559.500977,202.195297l-0.078979,4.822998l7.799988,0l0.088013,-6.725998c0.909973,1.740005 3.893982,7.552002 13.365967,7.552002c3.737,0 15.111023,-1.410995 15.111023,-14.195999l0,-28.320007l-7.96698,0l0,26.491013c0,2.742996 -0.334045,5.22699 -2.247009,7.144989c-1.991028,1.908005 -4.730042,2.822998 -7.38501,2.822998c-5.651001,0 -10.877991,-4.067993 -10.877991,-12.450989l0,-24.008011l-7.809021,0l0,36.867004z"/>
      <path fill="#36465D" fill-rule="nonzero" id="path3077" d="m224.004395,96.542l0,33.646004l11.324997,0l5.265991,-22.886002l0.094009,0l5.595993,22.886002l10.951004,0l0,-33.646004l-6.850006,0l0,25.965004l-0.092987,0l-6.476013,-25.965004l-6.712997,0l-6.156998,25.965004l-0.093002,0l0,-25.965004l-6.849991,0z"/>
      <path fill="#36465D" fill-rule="nonzero" id="path3079" d="m276.203613,96.542l1.916992,7.455002l9.600006,0l1.863007,-7.455002l7.41098,0l-9.136993,33.646004l-9.273987,0l-9.324005,-33.646004l6.944,0zm10.027008,12.628998l-6.71701,0l3.220001,14.546005l0.088989,0l3.40802,-14.546005z"/>
      <path fill="#36465D" fill-rule="nonzero" id="path3081" d="m309.204102,96.542l0,33.646004l9.515991,0l8.940002,-23.299004l0.093018,0l0,23.299004l6.574982,0l0,-33.646004l-9.278992,0l-9.181,24.607002l-0.088989,0l0,-24.607002l-6.575012,0z"/>
      <path fill="#36465D" fill-rule="nonzero" id="path3083" d="m360.100586,123.716797l-0.093994,0l-3.214996,-14.545998l6.712006,0l-3.403015,14.545998zm-13.562988,-27.174995l9.324982,33.646004l9.269012,0l9.141998,-33.646004l-7.415985,0l-1.863007,7.455002l-9.598999,0l-1.90802,-7.455002l-6.949982,0z"/>
      <path fill="#36465D" fill-rule="nonzero" id="path3085" d="m401.816406,119.841797c0.044006,3.127007 -0.471985,5.875999 -4.194,5.875999c-4.381989,0 -4.381989,-5.915993 -4.381989,-12.440994c0,-10.534004 1.022003,-12.397003 5.035004,-12.397003c1.16098,0 2.418976,0.275002 3.496979,0.653l0,7.451004l-3.825989,0l0,5.177994l10.863007,0l0,-17.063995c-1.90802,-0.368004 -6.718994,-1.116005 -9.511993,-1.116005c-11.835022,0 -13.187012,4.898003 -13.187012,17.664001c0,8.477005 0.417999,17.102005 11.929993,17.102005c6.89801,0 11.187012,-3.864006 10.769012,-10.906006l-6.993011,0z"/>
      <path fill="#36465D" fill-rule="nonzero" id="path3087" d="m423.768585,96.542l0,33.646004l18.356018,0l0,-5.168007l-11.315002,0l0,-8.295998l10.435974,0l0,-5.178001l-10.435974,0l0,-9.829994l11.692993,0l0,-5.174004l-18.734009,0z"/>
      <path fill="#36465D" fill-rule="nonzero" id="path3089" d="m455.790009,96.542l0,33.646004l11.320007,0l5.272003,-22.886002l0.093994,0l5.584991,22.886002l10.960999,0l0,-33.646004l-6.848999,0l0,25.965004l-0.093994,0l-6.480011,-25.965004l-6.712982,0l-6.152008,25.965004l-0.092987,0l0,-25.965004l-6.851013,0z"/>
      <path fill="#36465D" fill-rule="nonzero" id="path3091" d="m503.608398,96.542l0,33.646004l18.372009,0l0,-5.168007l-11.335022,0l0,-8.295998l10.436035,0l0,-5.178001l-10.436035,0l0,-9.829994l11.699036,0l0,-5.174004l-18.736023,0z"/>
      <path fill="#36465D" fill-rule="nonzero" id="path3093" d="m535.81842,96.542l0,33.646004l9.510986,0l8.939026,-23.299004l0.098999,0l0,23.299004l6.56897,0l0,-33.646004l-9.273987,0l-9.180969,24.607002l-0.094055,0l0,-24.607002l-6.56897,0z"/>
      <path fill="#36465D" fill-rule="nonzero" id="path3095" d="m595.75293,130.1875l0,-5.585999l-7.828979,0l0,-28.060005l-7.037048,0l0,28.060005l-7.827942,0l0,5.585999l22.69397,0z"/>
      <path fill="#36465D" fill-rule="nonzero" id="path3097" d="m223.822006,264.02301l371.935989,0l0,16.729004l-371.935989,0l0,-16.729004z"/>
      <path fill="#36465D" fill-rule="nonzero" id="path3099" d="m238.255005,293.095001l14.098999,0l0,92.056l-14.098999,0l0,-92.056z"/>
      <path fill="#36465D" fill-rule="nonzero" id="path3101" d="m275.057007,293.095001l14.093994,0l0,92.056l-14.093994,0l0,-92.056z"/>
      <path fill="#36465D" fill-rule="nonzero" id="path3103" d="m311.850006,293.095001l14.097992,0l0,92.056l-14.097992,0l0,-92.056z"/>
      <path fill="#36465D" fill-rule="nonzero" id="path3105" d="m348.647003,293.095001l14.100006,0l0,92.056l-14.100006,0l0,-92.056z"/>
      <path fill="#36465D" fill-rule="nonzero" id="path3107" d="m385.440002,293.095001l14.104004,0l0,92.056l-14.104004,0l0,-92.056z"/>
      <path fill="#36465D" fill-rule="nonzero" id="path3109" d="m422.248993,293.095001l14.087982,0l0,92.056l-14.087982,0l0,-92.056z"/>
      <path fill="#36465D" fill-rule="nonzero" id="path3111" d="m459.04599,293.095001l14.098999,0l0,92.056l-14.098999,0l0,-92.056z"/>
      <path fill="#36465D" fill-rule="nonzero" id="path3113" d="m495.843994,293.095001l14.088989,0l0,92.056l-14.088989,0l0,-92.056z"/>
      <path fill="#36465D" fill-rule="nonzero" id="path3115" d="m532.640991,293.095001l14.098022,0l0,92.056l-14.098022,0l0,-92.056z"/>
      <path fill="#36465D" fill-rule="nonzero" id="path3117" d="m569.434021,293.095001l14.093018,0l0,92.056l-14.093018,0l0,-92.056z"/>
      <path fill="#36465D" fill-rule="nonzero" id="path3119" d="m223.714005,424.623993l371.949997,0l0,12.544006l-371.949997,0l0,-12.544006z"/>
      <path fill="#36465D" fill-rule="nonzero" id="path3121" d="m266.851013,450.574005l283.229004,0l0,12.548981l-283.229004,0l0,-12.548981z"/>
      <path fill="#36465D" fill-rule="nonzero" id="path3123" d="m234.345993,399.283997l352.417984,0l0,12.55899l-352.417984,0l0,-12.55899z"/>
      <path fill="#36465D" fill-rule="nonzero" id="path3125" d="m270.794403,477.402802c33.084991,39.27597 82.643982,64.232025 138.014984,64.232025c55.351013,0 104.890015,-24.946045 137.989014,-64.173004l-276.003998,-0.059021z"/>
     </g>
    </g>
   </g>
  </svg>
 </defs>
 <g>
  <title>Layer 1</title>
  <use x="-216.4525" y="-29.401245" transform="matrix(0.16161616146564484,0,0,0.16161616146564484,0,0) " id="svg_2" xlink:href="#svg_1"/>
 </g>
</svg>